<svg width="32" height="36" viewBox="0 0 32 36" fill="none" xmlns="http://www.w3.org/2000/svg">
<path d="M31.0047 8.56339L16.6047 0.163552C16.4211 0.0564413 16.2124 0 15.9999 0C15.7874 0 15.5787 0.0564413 15.3951 0.163552L0.995102 8.56339C0.813929 8.66911 0.663633 8.82047 0.559199 9.00238C0.454764 9.1843 0.39984 9.39041 0.399902 9.60017V26.3998C0.39984 26.6096 0.454764 26.8157 0.559199 26.9976C0.663633 27.1795 0.813929 27.3309 0.995102 27.4366L15.3951 35.8364C15.5787 35.9436 15.7874 36 15.9999 36C16.2124 36 16.4211 35.9436 16.6047 35.8364L31.0047 27.4366C31.1859 27.3309 31.3362 27.1795 31.4406 26.9976C31.545 26.8157 31.6 26.6096 31.5999 26.3998V9.60017C31.6 9.39041 31.545 9.1843 31.4406 9.00238C31.3362 8.82047 31.1859 8.66911 31.0047 8.56339ZM15.9999 2.5899L28.0191 9.60017L15.9999 16.6104L3.9807 9.60017L15.9999 2.5899ZM2.7999 11.6881L14.7999 18.6876V32.7117L2.7999 25.711V11.6881ZM17.1999 32.7117V18.6888L29.1999 11.6893V25.711L17.1999 32.7117Z" fill="black"/>
</svg>
