<svg width="36" height="30" viewBox="0 0 36 30" fill="none" xmlns="http://www.w3.org/2000/svg">
<path d="M35.0013 0.599976C34.8787 0.599976 34.7525 0.623761 34.6287 0.674547L24.0006 4.71426H24L13.25 0.810833C12.842 0.671351 12.4149 0.600159 11.985 0.599976C11.5669 0.599976 11.1494 0.667476 10.7469 0.801833L1.2575 4.19676C0.886361 4.34945 0.568207 4.613 0.344068 4.95343C0.11993 5.29385 8.8888e-05 5.69554 0 6.10669L0 28.3701C0 28.9609 0.470625 29.4 0.999375 29.4C1.12188 29.4 1.2475 29.3762 1.37188 29.3254L12 25.2857L22.75 29.1885C23.5619 29.4671 24.4392 29.4705 25.2531 29.1981L34.7425 25.8032C35.1137 25.6506 35.4319 25.387 35.656 25.0466C35.8802 24.7062 36 24.3044 36 23.8933V1.62983C36 1.03905 35.5294 0.599976 35.0013 0.599976ZM14 4.35555L22 7.26062V25.6444L14 22.7393V4.35555ZM3 25.4175V6.84019L11 3.97755V22.3761L10.96 22.3909L3 25.4175ZM33 23.1591L25 26.0218V7.62383L25.04 7.6084L33 4.58248V23.1591Z" fill="black"/>
</svg>
