<svg width="27" height="36" viewBox="0 0 27 36" fill="none" xmlns="http://www.w3.org/2000/svg">
<path d="M13.5 7.71427C12.3134 7.71427 11.1533 8.0913 10.1666 8.79768C9.17993 9.50406 8.4109 10.5081 7.95677 11.6827C7.50265 12.8574 7.38383 14.15 7.61534 15.397C7.84685 16.644 8.41829 17.7895 9.25741 18.6885C10.0965 19.5876 11.1656 20.1998 12.3295 20.4479C13.4934 20.6959 14.6998 20.5686 15.7962 20.0821C16.8925 19.5955 17.8296 18.7715 18.4889 17.7144C19.1482 16.6572 19.5 15.4143 19.5 14.1428C19.4982 12.4385 18.8655 10.8045 17.7407 9.59932C16.6159 8.39415 15.0908 7.71623 13.5 7.71427ZM13.5 18C12.788 18 12.092 17.7738 11.5 17.3499C10.908 16.9261 10.4466 16.3237 10.1741 15.6189C9.90161 14.9141 9.83031 14.1386 9.96922 13.3903C10.1081 12.6421 10.451 11.9549 10.9545 11.4154C11.4579 10.876 12.0994 10.5086 12.7977 10.3598C13.4961 10.211 14.2199 10.2874 14.8777 10.5793C15.5355 10.8712 16.0978 11.3656 16.4933 11.9999C16.8889 12.6342 17.1 13.38 17.1 14.1428C17.099 15.1655 16.7193 16.1459 16.0445 16.869C15.3696 17.5921 14.4545 17.9988 13.5 18ZM13.5 0C10.0004 0.00425367 6.64524 1.49566 4.17062 4.14704C1.696 6.79841 0.304019 10.3932 0.300049 14.1428C0.300049 19.1886 2.47655 24.5377 6.5945 29.6116C8.44758 31.9041 10.5328 33.9688 12.8118 35.7676C13.0136 35.9188 13.2538 36 13.5 36C13.7463 36 13.9865 35.9188 14.1882 35.7676C16.4673 33.9688 18.5525 31.9041 20.4056 29.6116C24.5234 24.5377 26.7001 19.1888 26.7001 14.1428C26.6961 10.3932 25.3041 6.79841 22.8295 4.14704C20.3549 1.49566 16.9997 0.00425367 13.5 0ZM13.5 33.1039C11.0201 31.0197 2.70005 23.3407 2.70005 14.1428C2.70005 11.0739 3.8379 8.13067 5.8633 5.96061C7.88869 3.79055 10.6357 2.57142 13.5 2.57142C16.3644 2.57142 19.1114 3.79055 21.1368 5.96061C23.1622 8.13067 24.3 11.0739 24.3 14.1428C24.3 23.3408 15.9795 31.0202 13.5 33.1039Z" fill="black"/>
</svg>
