<svg width="13" height="13" viewBox="0 0 13 13" fill="none" xmlns="http://www.w3.org/2000/svg">
<path d="M11.9184 3.09233L6.71843 0.0590606C6.65215 0.0203816 6.57678 0 6.50003 0C6.42329 0 6.34792 0.0203816 6.28163 0.0590606L1.08163 3.09233C1.01621 3.13051 0.961935 3.18517 0.924223 3.25086C0.886511 3.31655 0.866677 3.39098 0.866699 3.46673V9.53327C0.866677 9.60902 0.886511 9.68345 0.924223 9.74914C0.961935 9.81483 1.01621 9.86949 1.08163 9.90767L6.28163 12.9409C6.34792 12.9796 6.42329 13 6.50003 13C6.57678 13 6.65215 12.9796 6.71843 12.9409L11.9184 9.90767C11.9839 9.86949 12.0381 9.81483 12.0758 9.74914C12.1136 9.68345 12.1334 9.60902 12.1334 9.53327V3.46673C12.1334 3.39098 12.1136 3.31655 12.0758 3.25086C12.0381 3.18517 11.9839 3.13051 11.9184 3.09233ZM6.50003 0.935243L10.8403 3.46673L6.50003 5.99821L2.15977 3.46673L6.50003 0.935243ZM1.73337 4.22071L6.0667 6.7483V11.8126L1.73337 9.28454V4.22071ZM6.93337 11.8126V6.74873L11.2667 4.22115V9.28454L6.93337 11.8126Z" fill="white"/>
</svg>
