<svg width="27" height="36" viewBox="0 0 27 36" fill="none" xmlns="http://www.w3.org/2000/svg">
<path d="M13.4998 7.71427C12.3131 7.71427 11.1531 8.0913 10.1664 8.79768C9.17969 9.50406 8.41065 10.5081 7.95653 11.6827C7.5024 12.8574 7.38358 14.15 7.61509 15.397C7.8466 16.644 8.41805 17.7895 9.25716 18.6885C10.0963 19.5876 11.1654 20.1998 12.3293 20.4479C13.4931 20.6959 14.6995 20.5686 15.7959 20.0821C16.8923 19.5955 17.8293 18.7715 18.4886 17.7144C19.1479 16.6572 19.4998 15.4143 19.4998 14.1428C19.498 12.4385 18.8653 10.8045 17.7404 9.59932C16.6156 8.39415 15.0905 7.71623 13.4998 7.71427ZM13.4998 18C12.7878 18 12.0918 17.7738 11.4998 17.3499C10.9077 16.9261 10.4463 16.3237 10.1738 15.6189C9.90136 14.9141 9.83007 14.1386 9.96898 13.3903C10.1079 12.6421 10.4508 11.9549 10.9542 11.4154C11.4577 10.876 12.0991 10.5086 12.7975 10.3598C13.4958 10.211 14.2197 10.2874 14.8775 10.5793C15.5353 10.8712 16.0975 11.3656 16.4931 11.9999C16.8887 12.6342 17.0998 13.38 17.0998 14.1428C17.0987 15.1655 16.7191 16.1459 16.0442 16.869C15.3693 17.5921 14.4543 17.9988 13.4998 18ZM13.4998 0C10.0002 0.00425367 6.645 1.49566 4.17038 4.14704C1.69576 6.79841 0.303775 10.3932 0.299805 14.1428C0.299805 19.1886 2.4763 24.5377 6.59425 29.6116C8.44734 31.9041 10.5326 33.9688 12.8116 35.7676C13.0133 35.9188 13.2536 36 13.4998 36C13.746 36 13.9863 35.9188 14.188 35.7676C16.467 33.9688 18.5523 31.9041 20.4054 29.6116C24.5232 24.5377 26.6998 19.1888 26.6998 14.1428C26.6958 10.3932 25.3039 6.79841 22.8292 4.14704C20.3546 1.49566 16.9994 0.00425367 13.4998 0ZM13.4998 33.1039C11.0199 31.0197 2.6998 23.3407 2.6998 14.1428C2.6998 11.0739 3.83766 8.13067 5.86305 5.96061C7.88844 3.79055 10.6355 2.57142 13.4998 2.57142C16.3641 2.57142 19.1112 3.79055 21.1366 5.96061C23.162 8.13067 24.2998 11.0739 24.2998 14.1428C24.2998 23.3408 15.9793 31.0202 13.4998 33.1039Z" fill="black"/>
</svg>
