<svg width="31" height="31" viewBox="0 0 31 31" fill="none" xmlns="http://www.w3.org/2000/svg">
<path d="M16.1776 0.439583C14.0314 0.283352 11.8767 0.59106 9.86002 1.34179C7.84334 2.09251 6.01195 3.26866 4.49034 4.79027C2.96873 6.31187 1.79259 8.14327 1.04186 10.1599C0.291133 12.1766 -0.0165747 14.3313 0.139656 16.4775C0.679754 24.4139 7.61101 30.4 15.5625 30.4H21.0985C21.9236 30.4 22.5987 29.7249 22.5987 28.8998C22.5987 28.0746 21.9236 27.3995 21.0985 27.3995H15.5925C9.99645 27.3995 4.86551 23.7688 3.47026 18.3528C1.23485 9.65126 9.33633 1.53478 18.0379 3.78519C23.4689 5.16544 27.0996 10.2964 27.0996 15.8924V17.5427C27.0996 18.7279 26.0344 19.8981 24.8491 19.8981C23.6639 19.8981 22.5987 18.7279 22.5987 17.5427V15.6673C22.5987 11.9017 19.9282 8.51105 16.2076 7.98595C15.0238 7.80993 13.8151 7.91924 12.6821 8.30479C11.5491 8.69033 10.5246 9.34095 9.6939 10.2025C8.86319 11.064 8.25031 12.1115 7.90628 13.2578C7.56224 14.4041 7.49702 15.616 7.71603 16.7926C7.97916 18.2103 8.64564 19.522 9.63554 20.5705C10.6255 21.6189 11.8968 22.3596 13.297 22.7036C16.0575 23.3487 18.683 22.4636 20.4083 20.7083C21.7436 22.5386 24.4141 23.4988 26.8595 22.5236C28.8699 21.7284 30.1001 19.6731 30.1001 17.5127V15.8774C30.1001 7.91094 24.114 0.979681 16.1776 0.439583ZM15.0974 19.8981C12.6069 19.8981 10.5966 17.8878 10.5966 15.3973C10.5966 12.9068 12.6069 10.8965 15.0974 10.8965C17.5878 10.8965 19.5982 12.9068 19.5982 15.3973C19.5982 17.8878 17.5878 19.8981 15.0974 19.8981Z" fill="black"/>
</svg>
