<svg width="36" height="35" viewBox="0 0 36 35" fill="none" xmlns="http://www.w3.org/2000/svg">
<path d="M33.908 0H1.892C1.12205 0 0.5 0.62205 0.5 1.392V33.408C0.5 34.1779 1.12205 34.8 1.892 34.8H33.908C34.6779 34.8 35.3 34.1779 35.3 33.408V1.392C35.3 0.62205 34.6779 0 33.908 0ZM32.516 32.016H24.5077V21.3237H29.0317L29.7102 16.0732H24.5077V12.7194C24.5077 11.1969 24.9296 10.1616 27.1089 10.1616H29.8886V5.4636C29.4057 5.39835 27.7571 5.2548 25.8344 5.2548C21.8237 5.2548 19.0788 7.70385 19.0788 12.1974V16.0689H14.5461V21.3193H19.0832V32.016H3.284V2.784H32.516V32.016Z" fill="black"/>
</svg>
