<svg width="37" height="36" viewBox="0 0 37 36" fill="none" xmlns="http://www.w3.org/2000/svg">
<path d="M18.4952 8.76426C13.3843 8.76426 9.25959 12.889 9.25959 18C9.25959 23.111 13.3843 27.2357 18.4952 27.2357C23.606 27.2357 27.7307 23.111 27.7307 18C27.7307 12.889 23.606 8.76426 18.4952 8.76426ZM18.4952 24.0026C15.19 24.0026 12.4927 21.3052 12.4927 18C12.4927 14.6948 15.19 11.9974 18.4952 11.9974C21.8003 11.9974 24.4976 14.6948 24.4976 18C24.4976 21.3052 21.8003 24.0026 18.4952 24.0026ZM28.109 6.23355C26.9157 6.23355 25.9521 7.1972 25.9521 8.39051C25.9521 9.58381 26.9157 10.5475 28.109 10.5475C29.3023 10.5475 30.2659 9.58832 30.2659 8.39051C30.2663 8.10715 30.2107 7.82651 30.1024 7.56466C29.9942 7.3028 29.8353 7.06488 29.6349 6.86452C29.4346 6.66415 29.1967 6.50529 28.9348 6.39701C28.673 6.28874 28.3923 6.23319 28.109 6.23355ZM36.498 18C36.498 15.5143 36.5205 13.0512 36.3809 10.57C36.2413 7.68803 35.5839 5.1303 33.4765 3.02288C31.3646 0.910954 28.8114 0.258013 25.9295 0.118418C23.4439 -0.0211759 20.9808 0.0013394 18.4997 0.0013394C16.014 0.0013394 13.5509 -0.0211759 11.0698 0.118418C8.18789 0.258013 5.63021 0.915457 3.52282 3.02288C1.41094 5.13481 0.758008 7.68803 0.618416 10.57C0.478825 13.0557 0.501339 15.5188 0.501339 18C0.501339 20.4812 0.478825 22.9488 0.618416 25.43C0.758008 28.312 1.41544 30.8697 3.52282 32.9771C5.63471 35.089 8.18789 35.742 11.0698 35.8816C13.5554 36.0212 16.0185 35.9987 18.4997 35.9987C20.9853 35.9987 23.4484 36.0212 25.9295 35.8816C28.8114 35.742 31.3691 35.0845 33.4765 32.9771C35.5884 30.8652 36.2413 28.312 36.3809 25.43C36.525 22.9488 36.498 20.4857 36.498 18ZM32.5354 28.6182C32.2067 29.4377 31.8104 30.0501 31.1755 30.6806C30.5406 31.3155 29.9327 31.7118 29.1131 32.0405C26.7446 32.9816 21.1204 32.77 18.4952 32.77C15.8699 32.77 10.2412 32.9816 7.87268 32.045C7.05314 31.7163 6.44074 31.32 5.81033 30.6851C5.17541 30.0501 4.77915 29.4422 4.45043 28.6227C3.51382 26.2496 3.72546 20.6253 3.72546 18C3.72546 15.3747 3.51382 9.74592 4.45043 7.37732C4.77915 6.55777 5.17541 5.94536 5.81033 5.31493C6.44525 4.6845 7.05314 4.28373 7.87268 3.95501C10.2412 3.01838 15.8699 3.23002 18.4952 3.23002C21.1204 3.23002 26.7491 3.01838 29.1176 3.95501C29.9372 4.28373 30.5496 4.68 31.18 5.31493C31.8149 5.94986 32.2112 6.55777 32.5399 7.37732C33.4765 9.74592 33.2649 15.3747 33.2649 18C33.2649 20.6253 33.4765 26.2496 32.5354 28.6182Z" fill="black"/>
</svg>
