<svg width="36" height="36" viewBox="0 0 36 36" fill="none" xmlns="http://www.w3.org/2000/svg">
<path d="M25.1241 33.6H25.1678C25.9915 33.6 26.77 33.2755 27.3597 32.6858L31.5905 28.4549C31.7355 28.3101 31.8506 28.1382 31.9291 27.9489C32.0076 27.7597 32.048 27.5568 32.048 27.3519C32.048 27.147 32.0076 26.9441 31.9291 26.7549C31.8506 26.5656 31.7355 26.3937 31.5905 26.2489L25.3503 20.0086C25.2055 19.8636 25.0336 19.7486 24.8444 19.6701C24.6551 19.5916 24.4522 19.5512 24.2473 19.5512C24.0424 19.5512 23.8396 19.5916 23.6503 19.6701C23.4611 19.7486 23.2891 19.8636 23.1444 20.0086L20.6576 22.4954C19.5047 22.1522 17.3534 21.3721 15.9899 20.0086C14.6264 18.6451 13.8464 16.4938 13.5032 15.3409L15.9899 12.8541C16.1349 12.7094 16.25 12.5374 16.3285 12.3482C16.4069 12.1589 16.4473 11.956 16.4473 11.7511C16.4473 11.5462 16.4069 11.3434 16.3285 11.1541C16.25 10.9648 16.1349 10.7929 15.9899 10.6482L9.74969 4.40784C9.45144 4.12633 9.05684 3.96951 8.64672 3.96951C8.23661 3.96951 7.84201 4.12633 7.54376 4.40784L3.31444 8.63878C2.72161 9.23161 2.38776 10.046 2.40024 10.8775C2.43612 13.099 3.02426 20.8152 9.10538 26.8964C15.1865 32.9776 22.9026 33.5641 25.1241 33.6ZM8.64828 7.71677L12.6826 11.7511L10.6654 13.7683C10.4819 13.9514 10.347 14.1775 10.2732 14.426C10.1993 14.6745 10.1889 14.9375 10.2427 15.1911C10.2801 15.3705 11.1959 19.6248 13.7856 22.2146C16.3753 24.8043 20.6296 25.7201 20.809 25.7575C21.0625 25.8116 21.3257 25.8013 21.5742 25.7274C21.8228 25.6535 22.0488 25.5185 22.2317 25.3347L24.2489 23.3175L28.2832 27.3519L25.1537 30.4799C23.2068 30.4471 16.5453 29.9245 11.3113 24.6889C6.06014 19.4376 5.55156 12.7527 5.52036 10.8447L8.64828 7.71677ZM30.4798 16.4392H33.5999C33.5999 8.43597 27.5578 2.40002 19.5438 2.40002V5.52018C25.8807 5.52018 30.4798 10.1115 30.4798 16.4392Z" fill="black"/>
<path d="M20.3999 11.28C23.4282 11.28 24.7199 12.5717 24.7199 15.6H27.5999C27.5999 10.956 25.0439 8.40002 20.3999 8.40002V11.28Z" fill="black"/>
</svg>
