<svg width="109" height="35" viewBox="0 0 109 35" fill="none" xmlns="http://www.w3.org/2000/svg">
<path d="M45.8696 20.5499C44.1481 20.5499 42.5661 20.1337 41.1233 19.3012C39.6806 18.4524 38.5329 17.2934 37.6804 15.8243C36.8443 14.3389 36.4262 12.6739 36.4262 10.8294C36.4262 9.05013 36.8607 7.42596 37.7296 5.95687C38.6149 4.48777 39.7871 3.32882 41.2463 2.48C42.7218 1.63119 44.2875 1.20679 45.9434 1.20679C47.091 1.20679 48.0009 1.31289 48.6731 1.52509C49.3453 1.72097 50.124 2.07192 51.0094 2.57794V3.48389C50.1732 2.91257 49.3945 2.51265 48.6731 2.28413C47.9681 2.03928 47.0828 1.91685 46.0172 1.91685C44.3941 1.91685 42.9103 2.33309 41.566 3.16558C40.238 3.98175 39.1805 5.08357 38.3936 6.47105C37.623 7.84221 37.2378 9.31947 37.2378 10.9028C37.2378 12.5025 37.6312 13.9879 38.4182 15.3591C39.2051 16.7302 40.2462 17.8239 41.5414 18.6401C42.853 19.4399 44.2629 19.8398 45.7712 19.8398C46.8533 19.8398 47.796 19.7174 48.5993 19.4726C49.4027 19.2114 50.206 18.8115 51.0094 18.2728V19.1787C50.2224 19.6521 49.4109 19.9949 48.5747 20.2071C47.755 20.4356 46.8533 20.5499 45.8696 20.5499Z" fill="black"/>
<path d="M54.5045 1.69649H55.562C57.4802 1.69649 58.9557 2.20251 59.9886 3.21455C61.0378 4.2266 61.5625 5.67121 61.5625 7.54839C61.5625 8.62573 61.3001 9.61329 60.7755 10.5111C60.2673 11.4089 59.5705 12.1189 58.6852 12.6413C57.7999 13.1473 56.8244 13.4003 55.7587 13.4003H55.5866L61.9313 20.0602H60.8739L55.2915 14.2328V20.0602H54.5045V1.69649ZM55.7341 12.6902C56.6686 12.6902 57.5211 12.4617 58.2917 12.0047C59.0623 11.5476 59.6689 10.9355 60.1115 10.1683C60.5542 9.38476 60.7755 8.51963 60.7755 7.57287C60.7755 5.92422 60.3246 4.651 59.4229 3.75322C58.5376 2.85544 57.267 2.40655 55.6112 2.40655H55.2915V12.6902H55.7341Z" fill="black"/>
<path d="M64.6632 1.69649H71.2785V2.40655H65.4747V12.3964H70.3194V13.1065H65.4747V19.3501H71.2785V20.0602H64.6632V1.69649Z" fill="black"/>
<path d="M91.1249 20.0602H90.2642L86.7721 13.0575H76.9844L73.5661 20.0602H72.7054L81.9028 1.25576L91.1249 20.0602ZM86.477 12.3474L81.8537 3.01867L77.3287 12.3474H86.477Z" fill="black"/>
<path d="M94.7251 2.40655H90.4707V1.69649H99.7419V2.40655H95.5367V20.0602H94.7251V2.40655Z" fill="black"/>
<path d="M102.2 1.69649H108.815V2.40655H103.011V12.3964H107.856V13.1065H103.011V19.3501H108.815V20.0602H102.2V1.69649Z" fill="black"/>
<path d="M44.7578 33.9571H44.3391L42.6403 30.5503H37.8787L36.2157 33.9571H35.797L40.2714 24.809L44.7578 33.9571ZM42.4967 30.2049L40.2475 25.6666L38.0462 30.2049H42.4967Z" fill="black"/>
<path d="M46.0915 25.0234H46.606C47.5391 25.0234 48.257 25.2695 48.7594 25.7619C49.2699 26.2542 49.5251 26.957 49.5251 27.8702C49.5251 28.3943 49.3975 28.8748 49.1423 29.3115C48.895 29.7483 48.556 30.0937 48.1254 30.3478C47.6947 30.594 47.2201 30.7171 46.7017 30.7171H46.6179L49.7046 33.9571H49.1901L46.4744 31.1221V33.9571H46.0915V25.0234ZM46.6897 30.3717C47.1443 30.3717 47.5591 30.2605 47.9339 30.0381C48.3088 29.8158 48.6039 29.518 48.8192 29.1448C49.0346 28.7636 49.1423 28.3427 49.1423 27.8821C49.1423 27.0801 48.9229 26.4607 48.4843 26.0239C48.0536 25.5872 47.4354 25.3688 46.6299 25.3688H46.4744V30.3717H46.6897Z" fill="black"/>
<path d="M55.2448 34.1953C54.4073 34.1953 53.6377 33.9928 52.9358 33.5878C52.2339 33.1749 51.6756 32.6111 51.2609 31.8964C50.8541 31.1737 50.6507 30.3637 50.6507 29.4664C50.6507 28.6008 50.8621 27.8107 51.2848 27.096C51.7155 26.3813 52.2858 25.8175 52.9956 25.4045C53.7134 24.9916 54.4751 24.7851 55.2807 24.7851C55.839 24.7851 56.2817 24.8368 56.6087 24.94C56.9357 25.0353 57.3145 25.206 57.7452 25.4522V25.8929C57.3385 25.615 56.9596 25.4204 56.6087 25.3092C56.2657 25.1901 55.835 25.1306 55.3166 25.1306C54.527 25.1306 53.8052 25.3331 53.1512 25.7381C52.5051 26.1351 51.9907 26.6711 51.6078 27.3461C51.233 28.0132 51.0455 28.7318 51.0455 29.5021C51.0455 30.2803 51.237 31.003 51.6198 31.67C52.0026 32.3371 52.5091 32.8691 53.1392 33.2662C53.7773 33.6553 54.4632 33.8499 55.197 33.8499C55.7234 33.8499 56.182 33.7903 56.5728 33.6712C56.9636 33.5441 57.3544 33.3496 57.7452 33.0875V33.5282C57.3624 33.7585 56.9676 33.9253 56.5608 34.0285C56.162 34.1397 55.7234 34.1953 55.2448 34.1953Z" fill="black"/>
<path d="M59.4456 25.0234H59.8404V30.2049H65.9897V25.0234H66.3845V33.9571H65.9897V30.5503H59.8404V33.9571H59.4456V25.0234Z" fill="black"/>
<path d="M68.338 25.0234H68.7328V33.9571H68.338V25.0234Z" fill="black"/>
<path d="M72.0608 25.3688H69.9911V25.0234H74.5014V25.3688H72.4556V33.9571H72.0608V25.3688Z" fill="black"/>
<path d="M75.6971 25.0234H78.9154V25.3688H76.0919V30.2287H78.4488V30.5742H76.0919V33.6116H78.9154V33.9571H75.6971V25.0234Z" fill="black"/>
<path d="M84.3831 34.1953C83.5456 34.1953 82.7759 33.9928 82.0741 33.5878C81.3722 33.1749 80.8139 32.6111 80.3991 31.8964C79.9924 31.1737 79.789 30.3637 79.789 29.4664C79.789 28.6008 80.0003 27.8107 80.4231 27.096C80.8538 26.3813 81.424 25.8175 82.1339 25.4045C82.8517 24.9916 83.6134 24.7851 84.4189 24.7851C84.9773 24.7851 85.4199 24.8368 85.7469 24.94C86.0739 25.0353 86.4528 25.206 86.8835 25.4522V25.8929C86.4767 25.615 86.0979 25.4204 85.7469 25.3092C85.404 25.1901 84.9733 25.1306 84.4548 25.1306C83.6652 25.1306 82.9434 25.3331 82.2894 25.7381C81.6434 26.1351 81.1289 26.6711 80.7461 27.3461C80.3712 28.0132 80.1838 28.7318 80.1838 29.5021C80.1838 30.2803 80.3752 31.003 80.758 31.67C81.1409 32.3371 81.6474 32.8691 82.2774 33.2662C82.9155 33.6553 83.6014 33.8499 84.3352 33.8499C84.8616 33.8499 85.3202 33.7903 85.711 33.6712C86.1019 33.5441 86.4927 33.3496 86.8835 33.0875V33.5282C86.5006 33.7585 86.1058 33.9253 85.6991 34.0285C85.3003 34.1397 84.8616 34.1953 84.3831 34.1953Z" fill="black"/>
<path d="M89.9597 25.3688H87.8899V25.0234H92.4003V25.3688H90.3545V33.9571H89.9597V25.3688Z" fill="black"/>
<path d="M96.2878 34.1953C95.7694 34.1953 95.3068 34.0881 94.9 33.8737C94.4933 33.6513 94.1742 33.3377 93.9429 32.9327C93.7116 32.5277 93.596 32.0552 93.596 31.5152V25.0234H93.9908V31.5033C93.9908 31.9797 94.0905 32.3966 94.2899 32.754C94.4893 33.1034 94.7605 33.3734 95.1034 33.564C95.4544 33.7546 95.8452 33.8499 96.2759 33.8499C96.7066 33.8499 97.0934 33.7585 97.4363 33.5759C97.7873 33.3853 98.0585 33.1153 98.2499 32.7659C98.4493 32.4086 98.549 31.9877 98.549 31.5033V25.0234H98.9438V31.4914C98.9438 32.0393 98.8321 32.5197 98.6088 32.9327C98.3855 33.3377 98.0704 33.6513 97.6637 33.8737C97.2649 34.0881 96.8063 34.1953 96.2878 34.1953Z" fill="black"/>
<path d="M100.84 25.0234H101.354C102.287 25.0234 103.005 25.2695 103.508 25.7619C104.018 26.2542 104.273 26.957 104.273 27.8702C104.273 28.3943 104.146 28.8748 103.89 29.3115C103.643 29.7483 103.304 30.0937 102.873 30.3478C102.443 30.594 101.968 30.7171 101.45 30.7171H101.366L104.453 33.9571H103.938L101.222 31.1221V33.9571H100.84V25.0234ZM101.438 30.3717C101.892 30.3717 102.307 30.2605 102.682 30.0381C103.057 29.8158 103.352 29.518 103.567 29.1448C103.783 28.7636 103.89 28.3427 103.89 27.8821C103.89 27.0801 103.671 26.4607 103.232 26.0239C102.802 25.5872 102.184 25.3688 101.378 25.3688H101.222V30.3717H101.438Z" fill="black"/>
<path d="M105.782 25.0234H109V25.3688H106.177V30.2287H108.533V30.5742H106.177V33.6116H109V33.9571H105.782V25.0234Z" fill="black"/>
<path d="M16.9296 35C13.8435 35 11.0072 34.2468 8.42072 32.7405C5.83425 31.2046 3.77683 29.1076 2.24846 26.4494C0.749488 23.7616 0 20.7489 0 17.4114C0 14.192 0.77888 11.2532 2.33664 8.59494C3.92379 5.93671 6.0253 3.83966 8.64116 2.3038C11.2864 0.767932 14.0933 0 17.0619 0C19.1193 0 20.7505 0.191983 21.9556 0.57595C23.1607 0.930379 24.5568 1.5654 26.1439 2.48101V4.12025C24.6449 3.0865 23.2488 2.36287 21.9556 1.94937C20.6918 1.50633 19.1046 1.28481 17.1941 1.28481C14.2844 1.28481 11.6244 2.03797 9.2143 3.5443C6.83357 5.0211 4.9378 7.01477 3.527 9.52532C2.14559 12.0063 1.45489 14.6793 1.45489 17.5443C1.45489 20.4388 2.16029 23.1266 3.57109 25.6076C4.98189 28.0886 6.84827 30.0675 9.17021 31.5443C11.5215 32.9916 14.0492 33.7152 16.7533 33.7152C18.6931 33.7152 20.3831 33.4937 21.8233 33.0506C23.2635 32.5781 24.7037 31.8544 26.1439 30.8797V32.519C24.7331 33.3755 23.2782 33.9958 21.7792 34.3797C20.3097 34.7932 18.6931 35 16.9296 35Z" fill="black"/>
<path d="M17.3326 26.1494C15.7396 26.1494 14.2586 25.7585 12.8896 24.9766C11.5206 24.1948 10.4378 23.1441 9.6413 21.8247C8.84479 20.4809 8.44653 19.0393 8.44653 17.5C8.44653 15.9607 8.84479 14.5314 9.6413 13.2119C10.4378 11.8681 11.5206 10.8053 12.8896 10.0234C14.2586 9.24152 15.7396 8.85059 17.3326 8.85059C18.9505 8.85059 20.4813 9.27817 21.9249 10.1333C23.3686 10.9641 24.3767 12.0514 24.9492 13.3952V9.25374H26.1439V25.7463H24.9492V21.6415C24.2771 23.0097 23.2317 24.1092 21.8129 24.94C20.419 25.7463 18.9256 26.1494 17.3326 26.1494ZM17.4072 25.1232C18.7762 25.1232 20.0457 24.7812 21.2156 24.097C22.3854 23.3885 23.3064 22.46 23.9784 21.3116C24.6754 20.1388 25.0239 18.8683 25.0239 17.5C25.0239 16.1562 24.6754 14.8979 23.9784 13.7251C23.2815 12.5522 22.3481 11.6238 21.1782 10.9396C20.0083 10.2311 18.7389 9.87679 17.3699 9.87679C16.0009 9.87679 14.719 10.2311 13.5243 10.9396C12.3544 11.6482 11.4085 12.5889 10.6867 13.7617C9.98977 14.9345 9.6413 16.1928 9.6413 17.5367C9.6413 18.8805 9.98977 20.1388 10.6867 21.3116C11.4085 22.46 12.3668 23.3885 13.5616 24.097C14.7564 24.7812 16.0383 25.1232 17.4072 25.1232Z" fill="black"/>
</svg>
